<?xml version="1.0" standalone="no"?>
<!DOCTYPE svg PUBLIC "-//W3C//DTD SVG 20010904//EN"
 "http://www.w3.org/TR/2001/REC-SVG-20010904/DTD/svg10.dtd">
<svg version="1.0" xmlns="http://www.w3.org/2000/svg"
 width="512.000000pt" height="512.000000pt" viewBox="0 0 512.000000 512.000000"
 preserveAspectRatio="xMidYMid meet">
<metadata>
Created by potrace 1.14, written by Peter Selinger 2001-2017
</metadata>
<g transform="translate(0.000000,512.000000) scale(0.100000,-0.100000)"
fill="#000000" stroke="none">
<path d="M219 5106 c13 -15 12 -94 -1 -102 -4 -3 -8 -14 -8 -25 0 -10 -7 -19
-15 -19 -20 0 -19 -19 0 -26 14 -6 14 -8 1 -18 -10 -8 -15 -38 -18 -101 l-3
-90 60 2 c33 0 78 2 100 2 60 2 74 17 68 74 -5 45 -22 66 -24 30 0 -13 -3 -11
-10 7 -8 19 -6 27 5 36 22 15 20 31 -4 39 -11 3 -20 13 -20 20 0 8 -6 12 -13
9 -20 -7 -20 106 0 121 9 7 13 17 9 23 -9 15 -26 15 -26 1 0 -12 -46 -59 -57
-59 -3 0 -3 7 1 15 3 8 3 29 -1 45 -4 24 -11 30 -30 30 -21 0 -23 -3 -14 -14z
m5 -321 c-4 -8 -8 -15 -10 -15 -2 0 -4 7 -4 15 0 8 4 15 10 15 5 0 7 -7 4 -15z
m169 -1 c3 -4 1 -16 -5 -27 -10 -20 -11 -20 -24 -2 -7 10 -11 22 -8 26 6 10
28 12 37 3z"/>
<path d="M298 5113 c7 -3 16 -2 19 1 4 3 -2 6 -13 5 -11 0 -14 -3 -6 -6z"/>
<path d="M358 5113 c7 -3 16 -2 19 1 4 3 -2 6 -13 5 -11 0 -14 -3 -6 -6z"/>
<path d="M2456 5014 c-15 -13 -39 -25 -54 -25 -46 -3 -56 -5 -97 -16 -22 -6
-92 -18 -155 -28 -68 -11 -133 -27 -160 -40 -68 -34 -119 -55 -136 -55 -8 0
-17 -7 -20 -15 -4 -10 -21 -15 -54 -15 -33 0 -54 -6 -70 -20 -13 -11 -38 -20
-59 -21 -20 0 -30 -3 -23 -6 21 -8 14 -19 -59 -84 -64 -57 -73 -61 -84 -46
-16 22 -33 22 -31 0 2 -26 -34 -29 -41 -4 -6 23 -27 26 -68 11 -15 -6 -32 -7
-38 -3 -6 4 -21 7 -34 8 -22 1 -23 -1 -21 -110 1 -75 6 -115 15 -126 11 -13 9
-21 -12 -49 -14 -19 -25 -38 -25 -43 0 -4 -19 -30 -42 -58 -24 -27 -44 -53
-44 -59 -1 -5 -2 -15 -3 -21 0 -5 -6 -7 -11 -4 -6 3 -13 -1 -16 -10 -4 -9 -18
-21 -32 -26 -22 -9 -29 -6 -44 13 -17 22 -17 23 -31 4 -16 -22 -47 -16 -47 9
0 11 -9 15 -30 13 -35 -3 -37 -6 -36 -86 1 -44 6 -66 16 -73 11 -8 12 -12 3
-16 -18 -7 -16 -44 4 -58 17 -12 9 -40 -8 -29 -7 4 -9 -5 -7 -22 l3 -29 88 -1
c70 0 90 3 97 15 7 12 9 8 10 -16 0 -49 -9 -63 -41 -63 -16 0 -29 -5 -29 -10
0 -7 -6 -7 -19 0 -47 24 -127 4 -116 -30 3 -10 6 -40 6 -66 1 -64 7 -84 26
-84 9 0 13 6 10 14 -3 8 1 20 9 26 14 13 19 4 15 -27 -2 -12 9 -16 27 -10 4 1
7 8 7 16 0 23 26 25 31 4 4 -15 14 -20 41 -19 32 1 40 -4 72 -49 21 -30 38
-68 42 -95 4 -25 10 -55 14 -67 7 -22 4 -23 -38 -23 -61 0 -70 -14 -96 -140
-6 -33 -8 -35 -45 -32 -57 5 -73 -4 -46 -26 15 -12 21 -29 22 -60 0 -23 4 -42
9 -42 5 0 9 -7 9 -15 0 -17 16 -20 25 -5 10 16 25 11 25 -9 0 -10 7 -24 16
-32 37 -30 51 -129 18 -129 -8 0 -14 -4 -14 -9 0 -5 -14 -11 -31 -15 -46 -9
-25 -29 22 -21 38 7 39 6 39 -24 0 -17 0 -34 1 -38 0 -4 -4 -9 -11 -11 -6 -2
-9 2 -8 10 3 15 -38 14 -57 -2 -17 -14 -6 -62 16 -67 12 -3 19 -14 19 -29 0
-27 -17 -41 -32 -26 -6 6 -17 8 -24 5 -8 -3 -14 0 -14 6 0 6 -4 11 -10 11 -5
0 -10 -13 -10 -30 0 -34 -15 -40 -23 -10 -10 38 -26 21 -24 -25 2 -39 5 -45
24 -45 17 0 21 -4 16 -16 -5 -14 -2 -16 20 -10 16 4 27 2 27 -4 0 -5 -4 -10
-10 -10 -5 0 -10 -6 -10 -12 0 -7 -11 -23 -25 -36 -13 -13 -21 -30 -18 -38 6
-16 25 -18 39 -4 15 15 41 2 49 -23 7 -22 7 -22 15 3 12 36 12 62 0 55 -19
-12 -10 4 17 29 22 21 24 27 14 40 -15 18 -6 36 18 36 28 0 37 77 17 150 -5
19 -2 31 12 43 18 16 19 16 30 -8 13 -27 32 -34 32 -11 0 15 18 31 26 24 5 -6
-41 -150 -61 -188 -8 -16 -15 -33 -15 -39 0 -12 58 -31 85 -28 21 2 24 -8 41
-148 4 -27 13 -57 20 -66 10 -11 11 -24 4 -50 -6 -18 -10 -45 -10 -59 0 -27
31 -53 53 -44 9 3 18 -6 26 -28 7 -18 17 -41 22 -50 5 -10 9 -24 9 -31 0 -24
28 -71 60 -102 16 -16 30 -35 30 -42 0 -7 16 -29 35 -50 l34 -36 -20 -28 c-21
-30 -76 -62 -90 -53 -5 3 -9 -2 -9 -10 0 -9 -5 -16 -11 -16 -6 0 -9 7 -5 15 4
12 -6 15 -64 15 -38 0 -72 -5 -75 -10 -3 -6 -17 -7 -29 -4 -16 4 -25 0 -30
-11 -4 -11 -12 -15 -22 -11 -27 10 -37 -5 -17 -27 18 -20 18 -20 -7 -14 -14 4
-29 7 -34 7 -4 0 -6 14 -4 31 6 41 -18 50 -108 39 -37 -5 -72 -6 -76 -4 -17
11 -45 -17 -57 -56 -7 -23 -14 -47 -17 -54 -2 -6 3 -12 13 -13 10 0 41 -4 68
-8 28 -3 58 -6 68 -6 12 0 17 -5 13 -14 -3 -8 -1 -17 4 -20 6 -4 10 3 10 14 0
17 6 21 29 21 29 0 30 -1 30 -56 0 -31 2 -58 5 -62 3 -3 6 12 6 34 0 53 11
114 20 114 12 0 19 -39 9 -46 -12 -7 -11 -55 1 -74 7 -11 10 -7 10 17 0 54 19
47 23 -9 l3 -53 2 53 c2 54 22 75 22 22 0 -16 5 -30 10 -30 6 0 10 7 10 15 0
8 5 15 10 15 6 0 10 -14 10 -32 0 -17 3 -29 6 -25 3 3 6 22 6 41 0 20 4 36 9
36 5 0 9 -9 9 -19 0 -11 6 -22 13 -25 9 -3 8 -8 -3 -18 -23 -20 -40 -65 -40
-108 0 -29 -5 -42 -19 -50 -11 -5 -22 -18 -26 -29 -3 -10 -22 -27 -42 -37 -20
-10 -50 -31 -67 -47 -17 -15 -48 -32 -69 -38 -21 -5 -41 -17 -44 -25 -3 -8
-18 -21 -33 -29 -15 -8 -30 -25 -34 -39 -5 -19 -14 -25 -39 -28 -17 -2 -30 -6
-27 -9 7 -10 -31 -49 -47 -49 -7 0 -13 -7 -13 -15 0 -8 5 -15 10 -15 6 0 10
-9 10 -21 0 -48 47 -98 91 -99 45 0 141 51 192 102 57 57 114 173 148 299 14
53 32 94 47 111 29 32 37 31 23 -3 -5 -13 -20 -62 -32 -109 -44 -162 -117
-295 -198 -359 -65 -52 -141 -82 -191 -76 -23 3 -50 10 -60 15 -22 12 -80 84
-80 99 0 14 -17 14 -25 1 -3 -6 -15 -10 -26 -10 -10 0 -19 -7 -19 -15 0 -9 -9
-15 -24 -15 -14 0 -33 -11 -44 -25 -19 -24 -24 -25 -122 -22 -81 2 -104 5
-113 19 -7 9 -18 25 -25 35 -9 13 -14 14 -18 6 -10 -23 -40 -14 -78 22 -23 22
-47 35 -64 35 l-27 0 32 21 c28 18 39 19 78 11 37 -8 62 -6 121 9 106 26 224
84 224 109 0 23 17 35 33 22 14 -11 51 0 62 19 6 8 -1 10 -23 7 -17 -2 -33 -1
-34 3 -2 4 -126 10 -277 13 -151 4 -277 9 -280 12 -3 3 2 10 12 15 9 6 17 22
17 36 0 25 -1 26 -13 8 -11 -14 -21 -17 -46 -12 -18 4 -44 4 -57 1 l-24 -6 2
-162 3 -161 28 -3 c16 -2 39 3 52 12 20 13 25 13 35 1 10 -12 9 -15 -5 -15
-13 0 -16 -6 -11 -25 6 -22 3 -25 -19 -25 -16 0 -25 -6 -25 -15 0 -19 -29 -19
-36 0 -20 50 -24 -26 -24 -420 l0 -435 2560 0 2560 0 0 450 0 450 -44 0 c-27
0 -52 7 -67 19 -13 10 -41 24 -62 32 -36 13 -36 14 -15 22 22 8 22 9 5 22 -27
20 -17 48 21 59 41 11 42 26 1 26 -26 0 -59 18 -59 34 0 2 10 6 23 8 14 2 23
11 25 26 3 20 0 23 -24 20 -21 -2 -31 4 -45 27 -10 17 -18 39 -18 51 -1 18 -7
21 -46 20 -30 -1 -48 4 -57 15 -15 19 -58 32 -58 18 0 -5 4 -9 9 -9 5 0 7 -10
4 -21 -5 -18 -3 -20 14 -15 23 7 36 -13 27 -39 -4 -8 -1 -15 7 -15 7 0 10 -3
7 -6 -4 -3 -16 0 -28 6 -18 10 -24 9 -31 -1 -16 -25 -9 -32 26 -26 37 6 49 -7
15 -16 -20 -5 -28 -27 -10 -27 16 0 12 -37 -5 -44 -20 -7 -19 -24 3 -29 10 -2
-3 -9 -31 -17 -37 -10 -46 -16 -42 -29 3 -10 -3 -20 -18 -26 -16 -8 -21 -17
-19 -38 3 -33 -4 -34 -28 -5 -15 19 -20 20 -34 9 -9 -7 -16 -21 -16 -30 0 -10
-9 -27 -20 -39 -11 -12 -20 -28 -20 -36 0 -8 -4 -17 -10 -21 -5 -3 -9 -25 -8
-49 0 -24 -3 -49 -6 -55 -12 -19 -26 -12 -26 14 0 30 -29 62 -62 68 l-23 4 23
8 c46 15 6 42 -67 44 -28 1 -31 3 -21 15 6 8 26 16 43 18 27 2 32 7 32 28 0
14 6 35 13 47 6 12 9 29 5 39 -5 13 -3 16 10 11 19 -7 24 17 7 28 -20 12 2 26
31 20 39 -9 59 9 59 51 0 22 5 34 14 34 8 0 17 7 20 16 8 20 8 19 -21 28 -16
5 -23 3 -24 -6 0 -7 -13 -23 -30 -36 l-29 -24 0 26 c0 14 10 34 22 46 l22 20
-22 0 c-13 0 -22 6 -22 15 0 8 -7 15 -15 15 -8 0 -15 -7 -15 -15 0 -11 -10
-13 -51 -8 -38 4 -53 2 -60 -8 -6 -10 -9 -6 -9 14 0 41 -14 33 -29 -17 -7 -25
-18 -47 -24 -51 -7 -3 -2 -3 11 -1 18 3 22 1 18 -11 -3 -8 -6 -23 -6 -33 0
-10 -10 -20 -22 -24 -18 -4 -20 -8 -10 -18 19 -19 15 -28 -24 -44 -27 -11 -34
-19 -29 -34 7 -21 -20 -40 -57 -40 -18 0 -20 2 -8 10 8 5 11 12 7 16 -4 4 -2
13 4 20 9 10 7 15 -4 20 -21 8 -40 -5 -33 -22 4 -10 0 -14 -11 -12 -9 2 -18
-3 -20 -9 -3 -7 0 -13 6 -13 6 0 11 -3 11 -7 0 -5 -17 -8 -38 -8 -20 0 -36 4
-34 8 1 4 2 16 2 28 0 12 8 23 19 26 16 4 38 32 29 37 -2 1 -14 8 -28 14 -14
7 -17 10 -7 7 10 -3 27 -5 38 -5 10 0 19 -7 19 -15 0 -16 35 -19 80 -6 l25 7
-25 7 c-14 4 -34 14 -45 23 -20 15 -20 15 5 35 23 18 24 20 8 30 -10 5 -18 20
-18 32 0 12 -7 31 -15 41 -13 17 -13 22 0 42 19 29 7 107 -17 112 -23 4 -78
-38 -78 -60 0 -19 -25 -25 -35 -8 -3 5 -17 10 -31 10 -14 0 -27 6 -30 13 -3 8
4 58 16 112 31 152 27 167 -50 190 -30 10 -63 44 -114 121 -56 85 -134 175
-141 164 -3 -5 -28 -90 -55 -189 -27 -99 -54 -191 -61 -203 -16 -32 -71 -100
-75 -95 -2 2 10 31 27 65 28 57 81 228 124 398 l18 71 -34 31 c-32 29 -33 31
-16 49 9 11 17 26 17 34 0 8 13 26 29 42 30 29 41 84 41 200 0 38 3 48 11 40
11 -11 16 -156 7 -192 -2 -11 14 -15 66 -18 58 -3 68 -2 63 11 -4 9 -2 18 3
21 4 3 7 38 5 78 -2 39 -4 91 -4 113 l-1 42 -45 -6 c-37 -4 -46 -1 -51 13 -5
13 1 25 18 40 l26 23 -25 11 c-17 8 -23 17 -19 27 3 9 6 26 6 39 0 38 63 44
73 7 3 -10 4 73 4 183 0 196 0 201 27 260 26 57 36 131 22 154 -4 6 -7 39 -7
72 -1 55 -4 66 -29 91 -16 15 -42 31 -59 34 -17 4 -31 13 -31 20 0 20 40 176
50 195 4 9 9 107 9 218 1 209 -11 309 -43 368 -9 15 -20 35 -25 43 -31 55 -41
82 -41 107 0 17 -9 38 -20 48 -26 24 -26 61 1 75 11 7 18 14 15 18 -4 3 -20
-4 -36 -17 -33 -24 -50 -21 -50 10 0 14 -7 19 -26 19 -16 0 -28 7 -31 18 -3 9
-36 41 -73 69 -50 38 -70 61 -75 83 -6 25 -9 29 -21 19 -18 -15 -46 5 -37 27
3 8 -1 14 -11 14 -9 0 -16 -5 -16 -12 0 -9 -3 -9 -12 0 -7 7 -28 12 -47 12
-76 0 -197 52 -229 97 -12 16 -38 33 -62 41 -43 13 -140 71 -140 84 0 10 97
28 116 21 12 -4 15 -2 12 8 -7 21 -173 29 -193 10 -11 -12 -20 -11 -54 3 -23
9 -51 16 -62 16 -16 0 -19 4 -14 20 3 11 3 20 -2 20 -4 0 -24 4 -44 9 -30 7
-40 4 -63 -15z m-1096 -393 c0 -11 -29 -23 -40 -16 -5 3 -11 1 -15 -5 -8 -13
-25 -13 -25 0 0 12 36 28 63 29 9 1 17 -3 17 -8z m0 -106 c-4 -12 -18 -21 -34
-23 -21 -3 -26 1 -26 18 0 12 8 31 17 44 l17 23 17 -21 c11 -13 14 -27 9 -41z
m670 -386 c0 -25 -33 -22 -38 4 -2 12 3 17 17 17 15 0 21 -6 21 -21z m130 -69
c20 -16 22 -20 8 -20 -10 0 -18 -4 -18 -10 0 -15 -12 -12 -38 10 -44 37 2 56
48 20z m328 -19 c26 4 44 -3 39 -15 -3 -8 2 -16 13 -19 16 -4 18 -13 16 -57
-2 -45 -7 -55 -30 -69 -42 -25 -29 -46 29 -47 59 -1 219 -30 246 -44 10 -6 29
-8 42 -5 16 4 28 -1 44 -18 12 -14 35 -28 53 -32 17 -4 50 -17 72 -30 l41 -23
-36 -7 c-20 -4 -40 -4 -46 -1 -6 4 -34 -4 -63 -18 -69 -32 -86 -36 -195 -39
-74 -3 -97 -7 -114 -23 -16 -15 -41 -20 -121 -24 -70 -3 -102 -2 -105 6 -3 9
-12 9 -32 1 -24 -9 -37 -6 -81 17 -36 19 -74 29 -119 33 -81 6 -172 30 -188
50 -6 8 -17 13 -25 12 -24 -3 -38 1 -38 11 0 7 13 8 34 5 26 -5 38 -3 50 12
71 82 69 81 131 88 33 3 72 11 88 17 30 12 36 35 10 45 -13 5 -9 9 17 18 23 8
36 20 40 35 3 13 14 27 25 31 19 8 19 8 -2 15 -13 3 -23 14 -23 24 0 10 -7 21
-16 24 -25 9 -14 15 56 30 42 8 83 10 122 4 32 -4 62 -7 66 -7z m-1388 -106
c0 -8 -7 -15 -15 -15 -16 0 -20 12 -8 23 11 12 23 8 23 -8z m-150 -205 c0 -5
-7 -10 -15 -10 -8 0 -15 5 -15 10 0 6 7 10 15 10 8 0 15 -4 15 -10z m140 -45
c0 -8 -7 -15 -15 -15 -8 0 -15 7 -15 15 0 8 7 15 15 15 8 0 15 -7 15 -15z
m777 9 c-3 -3 -12 -4 -19 -1 -8 3 -5 6 6 6 11 1 17 -2 13 -5z m554 -334 c14 0
11 -20 -6 -36 -8 -9 -15 -11 -15 -5 0 6 -7 11 -15 11 -15 0 -20 21 -8 34 4 3
13 4 21 1 7 -3 18 -5 23 -5z m-11 -68 c0 -5 17 -18 38 -29 47 -27 73 -98 52
-138 -11 -20 -10 -28 4 -50 9 -14 25 -25 35 -25 17 0 41 -37 41 -63 0 -6 12
-35 28 -64 23 -44 25 -56 14 -70 -6 -10 -16 -28 -21 -39 -19 -44 -153 -100
-219 -91 -59 8 -115 33 -126 57 -8 18 -2 38 34 109 79 156 76 147 56 170 -28
31 -31 98 -7 154 11 26 27 50 36 53 8 4 15 12 15 20 0 8 5 14 10 14 6 0 10 -4
10 -8z m-1360 -138 c0 -16 -16 -19 -25 -4 -8 13 4 32 16 25 5 -4 9 -13 9 -21z
m2402 -41 c10 -9 18 -25 18 -35 0 -31 -29 -78 -49 -78 -10 0 -28 -9 -41 -20
-13 -11 -33 -20 -45 -20 -32 0 -45 -19 -45 -67 0 -37 -4 -45 -24 -53 -13 -4
-33 -25 -46 -44 -12 -20 -28 -37 -36 -37 -8 -1 -18 -2 -23 -3 -12 -1 -51 -51
-51 -65 0 -6 -3 -10 -7 -9 -5 2 -18 -6 -30 -17 -47 -40 -182 -2 -169 47 3 14
-5 29 -23 47 -34 32 -43 63 -29 103 9 26 8 33 -6 44 -23 16 -33 88 -15 100 8
5 47 9 87 9 62 0 76 3 88 20 12 17 24 19 86 16 39 -1 74 2 77 7 3 6 29 12 56
13 28 2 79 16 115 31 76 32 87 33 112 11z m-1654 -47 c-30 -22 -20 -29 35 -22
28 3 58 2 66 -3 8 -5 37 -3 75 6 60 14 61 14 81 -10 18 -20 20 -32 15 -88 -3
-43 -11 -72 -23 -83 -9 -10 -17 -24 -17 -32 0 -20 -24 -44 -44 -44 -10 0 -16
-9 -16 -22 0 -28 -10 -42 -32 -51 -19 -7 -25 -27 -9 -27 13 0 22 -30 16 -52
-8 -25 -25 -13 -25 18 0 24 -17 31 -35 16 -6 -4 -49 -6 -97 -4 -85 3 -88 4
-88 27 0 15 -7 26 -20 30 -13 4 -23 18 -27 36 -3 16 -11 29 -18 29 -7 0 -18
14 -24 31 -8 22 -15 29 -26 25 -11 -4 -19 3 -25 20 -5 13 -9 28 -8 32 1 4 -5
21 -14 37 -9 17 -19 51 -23 77 -7 45 -6 46 22 52 15 3 51 4 78 2 28 -2 77 -1
110 4 92 11 93 11 73 -4z m-578 -227 c0 -5 -7 -9 -15 -9 -15 0 -20 12 -9 23 8
8 24 -1 24 -14z m-125 -89 c16 -17 16 -20 2 -26 -22 -8 -37 3 -37 27 0 24 12
24 35 -1z m2613 -52 c-3 -7 -15 -14 -29 -16 -24 -4 -24 -3 -4 12 24 19 38 20
33 4z m-2593 -59 c0 -8 -10 -14 -25 -14 -21 0 -26 -6 -28 -33 -2 -20 -8 -32
-15 -29 -7 2 -11 12 -11 21 1 12 -3 15 -16 11 -15 -5 -17 -2 -13 17 8 30 23
39 44 28 12 -7 21 -5 29 6 15 17 35 14 35 -7z m2542 -41 c-2 -13 -4 -3 -4 22
0 25 2 35 4 23 2 -13 2 -33 0 -45z m-2417 -918 c0 -5 -7 -7 -15 -4 -8 4 -15 8
-15 10 0 2 7 4 15 4 8 0 15 -4 15 -10z m-223 -6 c-3 -3 -12 -4 -19 -1 -8 3 -5
6 6 6 11 1 17 -2 13 -5z m268 -44 c-8 -13 -35 0 -35 16 0 12 4 12 20 4 11 -6
18 -15 15 -20z m-33 -42 c-9 -9 -15 -9 -24 0 -9 9 -7 12 12 12 19 0 21 -3 12
-12z m83 2 c3 -5 1 -10 -4 -10 -6 0 -11 5 -11 10 0 6 2 10 4 10 3 0 8 -4 11
-10z m3495 -350 c0 -5 -12 -10 -26 -10 -14 0 -23 4 -19 10 3 6 15 10 26 10 10
0 19 -4 19 -10z m-4735 -30 c-5 -8 -11 -8 -21 1 -12 10 -12 14 -2 20 16 10 33
-5 23 -21z m-58 14 c-3 -3 -12 -4 -19 -1 -8 3 -5 6 6 6 11 1 17 -2 13 -5z
m3986 -90 c49 -9 48 -24 -2 -24 -44 0 -71 8 -71 21 0 10 20 11 73 3z m-1053
-37 c0 -32 -166 -132 -252 -153 -48 -11 -30 11 33 41 34 17 93 51 133 77 77
51 86 55 86 35z m-2540 -32 c10 -13 9 -15 -9 -15 -12 0 -21 6 -21 15 0 8 4 15
9 15 5 0 14 -7 21 -15z m3530 -34 c0 -5 -6 -14 -14 -20 -12 -10 -13 -8 -9 8 5
21 23 30 23 12z m-55 -31 c3 -5 1 -10 -4 -10 -6 0 -11 5 -11 10 0 6 2 10 4 10
3 0 8 -4 11 -10z m218 -87 c9 -8 -12 -33 -27 -33 -6 0 -18 5 -26 10 -13 9 -13
11 0 20 17 11 44 13 53 3z m467 -37 c0 -3 -4 -8 -10 -11 -5 -3 -10 -1 -10 4 0
6 5 11 10 11 6 0 10 -2 10 -4z m-38 -61 c0 -5 -5 -11 -11 -13 -6 -2 -11 4 -11
13 0 9 5 15 11 13 6 -2 11 -8 11 -13z m-188 -155 c14 -5 26 -17 26 -26 0 -16
-1 -16 -18 -1 -10 10 -24 17 -30 17 -6 0 -14 5 -17 10 -8 13 6 13 39 0z m31
-80 c3 -5 1 -10 -4 -10 -6 0 -11 5 -11 10 0 6 2 10 4 10 3 0 8 -4 11 -10z"/>
<path d="M3260 2920 c0 -11 5 -20 10 -20 6 0 10 9 10 20 0 11 -4 20 -10 20 -5
0 -10 -9 -10 -20z"/>
<path d="M4 4909 c-7 -12 15 -59 28 -59 9 0 11 31 2 54 -7 19 -20 21 -30 5z"/>
<path d="M534 4909 c-3 -6 -1 -16 5 -22 8 -8 11 -5 11 11 0 24 -5 28 -16 11z"/>
<path d="M609 4914 c-1 -5 -1 -13 0 -18 1 -5 -3 -12 -8 -16 -6 -3 -12 -18 -13
-33 -1 -15 -6 -27 -10 -27 -4 0 -8 -7 -8 -15 0 -8 -9 -15 -20 -15 -13 0 -20
-7 -20 -19 0 -25 16 -36 24 -16 7 19 26 19 26 0 0 -10 11 -15 35 -15 19 0 35
5 35 10 0 6 -10 10 -22 10 -16 0 -19 3 -11 11 7 7 21 4 47 -10 45 -26 101 -29
92 -5 -3 9 -6 25 -6 37 l-1 22 -18 -22 c-14 -16 -21 -19 -30 -10 -18 18 -14
50 5 43 10 -4 25 1 35 10 25 23 24 33 -3 26 -19 -5 -21 -2 -15 27 6 30 5 31
-24 29 -16 -1 -35 -8 -41 -15 -9 -11 -14 -10 -29 3 -11 10 -20 13 -20 8z m52
-64 l24 -19 -32 -1 c-26 0 -33 4 -33 20 0 25 11 25 41 0z"/>
<path d="M3912 4878 c-19 -19 -14 -31 9 -25 15 4 23 0 26 -12 5 -19 48 -26 95
-15 l29 6 -24 18 c-13 10 -36 21 -50 24 -15 3 -37 8 -50 11 -13 2 -29 -1 -35
-7z m78 -23 c0 -8 -6 -15 -14 -15 -8 0 -16 7 -20 15 -4 10 1 15 14 15 11 0 20
-7 20 -15z"/>
<path d="M4030 4880 c0 -7 8 -9 19 -5 13 4 23 0 31 -12 10 -17 11 -17 8 2 -3
22 -58 36 -58 15z"/>
<path d="M3693 4855 c-8 -22 6 -33 17 -15 13 20 12 30 0 30 -6 0 -13 -7 -17
-15z"/>
<path d="M3853 4856 c3 -8 1 -17 -6 -19 -7 -2 -9 -7 -6 -11 9 -10 39 4 39 19
0 7 -7 16 -16 19 -11 4 -15 2 -11 -8z"/>
<path d="M532 4834 c4 -21 22 -23 26 -1 2 10 -3 17 -13 17 -10 0 -15 -6 -13
-16z"/>
<path d="M3540 4830 c-12 -8 -12 -10 2 -15 20 -8 41 2 33 16 -8 11 -16 11 -35
-1z"/>
<path d="M3618 4823 c7 -3 16 -2 19 1 4 3 -2 6 -13 5 -11 0 -14 -3 -6 -6z"/>
<path d="M0 4790 c0 -5 6 -10 14 -10 8 0 18 5 21 10 3 6 -3 10 -14 10 -12 0
-21 -4 -21 -10z"/>
<path d="M1302 4783 c2 -9 8 -18 15 -20 7 -3 9 3 6 16 -6 25 -26 28 -21 4z"/>
<path d="M1250 4770 c0 -5 5 -10 11 -10 5 0 7 5 4 10 -3 6 -8 10 -11 10 -2 0
-4 -4 -4 -10z"/>
<path d="M22 4751 c2 -7 7 -12 11 -12 12 1 9 15 -3 20 -7 2 -11 -2 -8 -8z"/>
<path d="M4240 4733 c8 -2 24 -9 35 -14 20 -10 75 2 75 16 0 3 -28 5 -62 4
-35 0 -56 -3 -48 -6z"/>
<path d="M4374 4731 c3 -5 15 -7 26 -4 28 7 25 13 -6 13 -14 0 -23 -4 -20 -9z"/>
<path d="M3975 4720 c-10 -16 3 -29 25 -23 15 4 20 0 20 -13 0 -16 3 -16 20 6
l20 25 0 -24 c0 -13 3 -21 7 -17 4 4 8 15 8 24 0 9 6 16 13 15 6 -2 12 2 12 7
0 6 -26 10 -59 10 -33 0 -63 -4 -66 -10z"/>
<path d="M3530 4712 c-5 -2 -10 -15 -10 -28 0 -15 -6 -24 -16 -24 -11 0 -14 6
-9 20 3 11 2 20 -3 20 -16 0 -22 -43 -9 -59 9 -11 9 -13 0 -8 -18 11 -26 -10
-18 -50 5 -29 10 -34 27 -30 28 8 59 -9 52 -28 -4 -8 -15 -15 -27 -15 -36 0
-7 -14 35 -17 40 -3 40 -3 34 27 -5 27 -2 32 22 41 15 5 33 17 40 26 11 15 12
14 12 -6 l0 -22 28 19 c24 18 27 26 27 78 l0 59 -87 0 c-48 0 -92 -1 -98 -3z
m94 -78 c8 -22 8 -24 -8 -24 -18 0 -29 16 -21 30 9 15 22 12 29 -6z m-137 -51
c-3 -10 -5 -4 -5 12 0 17 2 24 5 18 2 -7 2 -21 0 -30z"/>
<path d="M4228 4703 c-2 -10 -1 -31 3 -48 6 -26 7 -23 8 18 1 48 -3 61 -11 30z"/>
<path d="M4290 4681 c0 -5 5 -13 10 -16 6 -3 10 -2 10 4 0 5 -4 13 -10 16 -5
3 -10 2 -10 -4z"/>
<path d="M908 4652 c-15 -3 -18 -15 -18 -80 0 -42 4 -81 8 -87 14 -19 30 -14
36 10 8 31 18 31 56 3 19 -13 31 -32 31 -47 2 -25 2 -25 6 -3 3 14 -3 32 -13
43 -20 22 -12 38 10 19 19 -15 41 4 41 35 0 11 7 20 15 20 11 0 15 -11 15 -40
0 -34 -3 -40 -21 -39 -18 0 -22 -5 -21 -33 1 -38 11 -43 22 -10 l8 22 4 -24
c3 -13 -1 -27 -9 -32 -9 -6 -7 -9 9 -9 25 0 37 28 32 76 -2 16 1 46 5 66 6 29
4 41 -8 53 -20 21 -20 32 0 43 13 7 10 10 -17 14 -66 10 -104 3 -107 -20 -2
-12 -9 -22 -17 -22 -7 0 -15 -5 -17 -12 -6 -17 -28 0 -28 23 0 20 15 26 25 9
8 -13 27 -2 22 13 -4 12 -36 16 -69 9z m185 -59 c-7 -2 -19 -2 -25 0 -7 3 -2
5 12 5 14 0 19 -2 13 -5z m-66 -55 c-3 -7 -5 -2 -5 12 0 14 2 19 5 13 2 -7 2
-19 0 -25z"/>
<path d="M593 4642 c-24 -3 -28 -21 -14 -56 5 -13 10 -16 14 -9 4 7 3 14 -3
18 -23 14 -7 25 38 26 49 0 135 15 117 19 -15 4 -127 5 -152 2z"/>
<path d="M7 4633 c-4 -3 -7 -20 -7 -36 l0 -30 20 26 c11 14 20 30 20 36 0 12
-23 15 -33 4z"/>
<path d="M195 4631 c-2 -5 1 -22 7 -38 10 -26 9 -34 -6 -48 -14 -15 -16 -29
-11 -89 8 -84 12 -99 24 -91 6 3 6 16 0 35 -6 16 -9 41 -6 57 3 23 4 22 6 -9
0 -21 4 -38 9 -38 10 -1 38 -41 46 -68 6 -17 3 -24 -15 -31 l-23 -8 22 -12
c12 -6 22 -20 22 -31 0 -14 5 -18 16 -13 11 4 15 15 12 34 -5 33 0 36 17 12
17 -23 35 -8 35 30 0 24 -6 35 -22 42 -29 13 -28 57 3 98 22 30 23 27 -10 91
-2 5 6 7 18 3 20 -5 22 -2 19 26 -2 27 1 33 20 35 35 5 15 22 -26 21 -20 0
-31 -3 -24 -6 6 -2 12 -13 12 -24 0 -16 -3 -17 -25 -7 -18 8 -22 15 -15 23 8
9 -3 12 -45 13 -30 0 -57 -3 -60 -7z m95 -56 c0 -14 -4 -25 -9 -25 -10 0 -21
36 -13 44 12 13 22 5 22 -19z"/>
<path d="M537 4633 c-3 -5 -1 -17 4 -28 7 -17 8 -17 8 8 1 27 -4 34 -12 20z"/>
<path d="M4022 4620 c0 -14 2 -19 5 -12 2 6 2 18 0 25 -3 6 -5 1 -5 -13z"/>
<path d="M4065 4629 c-4 -6 -5 -12 -2 -15 7 -7 37 7 37 17 0 13 -27 11 -35 -2z"/>
<path d="M705 4600 c3 -5 8 -10 11 -10 2 0 4 5 4 10 0 6 -5 10 -11 10 -5 0 -7
-4 -4 -10z"/>
<path d="M542 4560 c0 -14 2 -19 5 -12 2 6 2 18 0 25 -3 6 -5 1 -5 -13z"/>
<path d="M611 4554 c0 -11 3 -14 6 -6 3 7 2 16 -1 19 -3 4 -6 -2 -5 -13z"/>
<path d="M350 4525 c0 -8 5 -15 10 -15 6 0 10 7 10 15 0 8 -4 15 -10 15 -5 0
-10 -7 -10 -15z"/>
<path d="M3656 4524 c-5 -13 -9 -14 -21 -4 -9 7 -15 8 -15 2 0 -18 29 -22 45
-6 17 18 19 24 6 24 -5 0 -12 -7 -15 -16z"/>
<path d="M1 4514 c0 -11 3 -14 6 -6 3 7 2 16 -1 19 -3 4 -6 -2 -5 -13z"/>
<path d="M0 4460 c0 -5 5 -10 11 -10 5 0 7 5 4 10 -3 6 -8 10 -11 10 -2 0 -4
-4 -4 -10z"/>
<path d="M3670 4443 c0 -5 5 -15 10 -23 8 -12 10 -11 10 8 0 12 -4 22 -10 22
-5 0 -10 -3 -10 -7z"/>
<path d="M0 4416 c0 -9 5 -16 10 -16 6 0 10 4 10 9 0 6 -4 13 -10 16 -5 3 -10
-1 -10 -9z"/>
<path d="M900 4370 c0 -19 3 -21 12 -12 9 9 9 15 0 24 -9 9 -12 7 -12 -12z"/>
<path d="M10 4365 c-10 -12 -10 -15 3 -15 8 0 17 7 21 15 3 8 2 15 -3 15 -5 0
-14 -7 -21 -15z"/>
<path d="M3675 4370 c-3 -5 -1 -10 4 -10 6 0 11 5 11 10 0 6 -2 10 -4 10 -3 0
-8 -4 -11 -10z"/>
<path d="M195 4330 c-3 -5 -2 -17 3 -26 8 -14 10 -14 15 5 5 22 -7 38 -18 21z"/>
<path d="M0 4304 c0 -8 5 -12 10 -9 6 4 8 11 5 16 -9 14 -15 11 -15 -7z"/>
<path d="M1090 4280 c-12 -8 -9 -10 13 -10 15 0 27 5 27 10 0 13 -20 13 -40 0z"/>
<path d="M382 4230 c0 -14 2 -19 5 -12 2 6 2 18 0 25 -3 6 -5 1 -5 -13z"/>
<path d="M1105 4227 c-17 -13 -17 -14 4 -20 16 -4 21 -1 21 14 0 23 -1 23 -25
6z"/>
<path d="M195 4200 c3 -5 8 -10 11 -10 2 0 4 5 4 10 0 6 -5 10 -11 10 -5 0 -7
-4 -4 -10z"/>
<path d="M287 4203 c-4 -3 -7 -25 -7 -49 0 -45 -16 -60 -51 -49 -21 7 -26 25
-7 25 6 0 9 2 6 5 -9 9 -38 -7 -38 -21 0 -8 3 -13 8 -13 21 4 32 -3 32 -20 0
-11 -4 -23 -10 -26 -5 -3 -10 -15 -10 -26 0 -10 -4 -19 -10 -19 -5 0 -10 -7
-10 -16 0 -11 6 -14 20 -9 16 5 20 2 20 -14 0 -14 -6 -21 -18 -21 -15 0 -19
-8 -19 -37 -1 -30 1 -33 6 -14 9 34 31 39 31 8 0 -23 4 -25 48 -25 27 0 62 -3
79 -6 40 -9 57 11 43 50 -8 20 -8 35 1 56 9 22 9 32 0 41 -8 8 -11 8 -11 -1 0
-7 -7 -12 -16 -12 -9 0 -14 7 -12 18 4 24 -10 42 -31 42 -23 0 -46 26 -31 35
5 3 10 28 10 56 0 46 -7 59 -23 42z"/>
<path d="M4247 4134 c-15 -15 -6 -24 24 -24 20 0 29 4 27 13 -5 14 -40 21 -51
11z"/>
<path d="M4009 4123 c-1 -4 -1 -12 0 -16 1 -5 -10 -30 -23 -57 -26 -51 -24
-73 3 -39 12 15 22 18 39 12 21 -8 21 -10 6 -31 -12 -17 -21 -21 -41 -16 -17
5 -24 3 -19 -4 3 -6 2 -13 -4 -17 -5 -3 -10 -1 -10 5 0 6 -5 8 -11 4 -20 -12
19 -26 79 -29 32 -1 63 2 70 8 17 13 15 37 -3 37 -9 0 -12 -6 -9 -15 4 -8 1
-15 -5 -15 -6 0 -11 16 -11 36 0 28 5 37 20 41 18 5 20 12 16 52 l-3 46 -47 3
c-25 2 -47 -1 -47 -5z m79 -46 c4 -29 -12 -37 -22 -11 -10 26 -7 46 7 42 6 -3
13 -17 15 -31z"/>
<path d="M3900 4110 c-22 -6 -23 -8 -7 -15 10 -4 23 -3 29 3 6 6 17 8 24 5 8
-3 14 0 14 6 0 12 -22 13 -60 1z"/>
<path d="M0 4077 c0 -33 16 -67 31 -67 14 0 3 45 -17 74 -14 20 -14 20 -14 -7z"/>
<path d="M3956 4073 c-11 -11 -6 -23 9 -23 8 0 15 4 15 9 0 13 -16 22 -24 14z"/>
<path d="M593 4063 c-15 -5 -18 -43 -4 -43 9 0 26 39 19 44 -1 2 -9 1 -15 -1z"/>
<path d="M4842 4043 c-8 -15 -7 -25 4 -41 20 -29 41 -28 46 3 4 16 1 25 -8 25
-7 0 -17 7 -22 17 -9 15 -11 14 -20 -4z"/>
<path d="M720 4040 c0 -5 4 -10 9 -10 6 0 13 5 16 10 3 6 -1 10 -9 10 -9 0
-16 -4 -16 -10z"/>
<path d="M700 4008 c0 -14 15 -16 27 -3 10 11 9 13 -7 12 -11 -1 -20 -5 -20
-9z"/>
<path d="M5035 4000 c-8 -14 13 -50 30 -50 23 0 24 14 5 38 -20 24 -26 27 -35
12z"/>
<path d="M600 3985 c-8 -9 -8 -15 -2 -15 12 0 26 19 19 26 -2 2 -10 -2 -17
-11z"/>
<path d="M35 3979 c-4 -6 -13 -8 -21 -5 -9 3 -14 -1 -14 -13 0 -11 5 -21 11
-23 6 -2 12 -16 12 -31 1 -15 7 -27 14 -27 7 0 11 19 11 55 -1 57 -2 62 -13
44z"/>
<path d="M4783 3953 c9 -2 23 -2 30 0 6 3 -1 5 -18 5 -16 0 -22 -2 -12 -5z"/>
<path d="M4835 3950 c3 -5 17 -10 31 -10 13 0 24 5 24 10 0 6 -14 10 -31 10
-17 0 -28 -4 -24 -10z"/>
<path d="M540 3934 c0 -8 5 -12 10 -9 6 4 8 11 5 16 -9 14 -15 11 -15 -7z"/>
<path d="M610 3936 c0 -2 8 -10 18 -17 15 -13 16 -12 3 4 -13 16 -21 21 -21
13z"/>
<path d="M4793 3872 c-56 -6 -36 -22 27 -22 44 0 60 4 60 13 0 14 -24 17 -87
9z"/>
<path d="M5046 3871 c-19 -7 -18 -8 4 -14 25 -6 40 -2 40 14 0 11 -17 11 -44
0z"/>
<path d="M4315 3852 c-63 -3 -80 -15 -64 -43 6 -12 5 -19 -4 -22 -8 -3 -6 -11
8 -26 19 -22 19 -23 1 -37 -19 -14 -15 -29 7 -29 15 0 13 -68 -2 -73 -6 -2
-11 -16 -10 -30 0 -15 3 -21 6 -14 7 17 30 15 37 -5 7 -17 -12 -36 -26 -27 -4
3 -8 0 -8 -5 0 -6 8 -11 19 -11 12 0 17 -6 16 -17 -5 -35 -18 -63 -29 -63 -7
0 -11 -32 -12 -98 0 -53 -4 -136 -8 -184 -6 -80 -5 -89 14 -108 21 -21 62 -24
170 -12 l55 7 -4 45 c-1 25 -7 47 -12 48 -5 2 -9 8 -9 13 0 6 5 7 10 4 6 -3
10 0 10 8 0 13 -20 27 -37 27 -2 0 -3 -19 -1 -42 2 -24 -1 -44 -7 -45 -5 -2
-10 4 -9 12 0 8 1 33 2 56 2 35 5 40 21 34 14 -4 20 0 23 19 4 22 3 24 -14 15
-21 -11 -38 -4 -38 17 0 8 10 14 24 14 14 0 28 5 32 11 5 8 -1 10 -18 6 -32
-8 -40 0 -25 25 10 16 9 22 -7 34 -17 12 -18 14 -3 14 19 0 23 16 5 22 -8 3
-4 12 9 25 20 20 20 21 2 26 -21 6 -26 37 -6 37 39 0 42 66 3 72 -13 2 -21 10
-21 23 0 11 -6 26 -12 33 -15 15 -34 7 -28 -11 7 -17 -11 -41 -24 -33 -14 9
-15 36 -1 36 5 0 7 7 4 15 -4 10 0 15 14 15 20 0 21 3 12 45 -5 22 1 35 15 35
8 0 15 -5 15 -12 0 -28 13 5 16 42 3 30 0 40 -9 37 -6 -2 -13 -13 -15 -25 -2
-12 -10 -22 -18 -22 -19 0 -18 29 1 36 9 4 13 16 11 36 -4 34 16 48 45 30 28
-18 34 -14 15 7 -11 12 -29 18 -49 18 -18 -1 -59 -3 -92 -5z m1 -54 c3 -32 -4
-38 -31 -27 -17 6 -17 8 -2 8 21 1 23 21 2 21 -16 0 -20 12 -8 24 15 14 36 0
39 -26z m17 -129 c-3 -10 -10 -22 -17 -26 -6 -3 -8 -3 -4 2 4 4 3 14 -3 21 -6
8 -8 21 -5 30 9 24 36 -1 29 -27z m45 -196 c-2 -10 -12 -18 -23 -18 -11 0 -21
8 -23 18 -3 13 3 17 23 17 20 0 26 -4 23 -17z m-2 -75 c2 -20 -2 -28 -13 -28
-9 0 -13 6 -10 15 4 8 2 17 -3 20 -16 10 -11 27 6 23 10 -2 18 -15 20 -30z
m-46 -43 c0 -8 -7 -15 -15 -15 -8 0 -15 7 -15 15 0 8 7 15 15 15 8 0 15 -7 15
-15z m30 -75 c0 -5 9 -10 20 -10 11 0 20 -4 20 -9 0 -14 -21 -25 -29 -15 -3 5
-13 9 -21 9 -8 0 -16 8 -18 18 -2 10 3 17 12 17 9 0 16 -4 16 -10z m-22 -81
c-2 -6 -8 -10 -13 -10 -5 0 -11 4 -13 10 -2 6 4 11 13 11 9 0 15 -5 13 -11z
m70 -22 c2 -12 -3 -17 -17 -17 -12 0 -21 6 -21 13 0 31 32 34 38 4z m-54 -36
c3 -5 -1 -14 -8 -20 -16 -13 -32 2 -21 19 8 12 22 13 29 1z"/>
<path d="M4057 3819 c-10 -6 -27 -8 -40 -5 -13 4 -8 -1 11 -11 23 -12 32 -23
30 -38 -4 -27 -31 -26 -43 3 -12 28 -49 31 -40 3 4 -14 -1 -21 -22 -29 -30
-10 -44 -52 -17 -52 8 0 14 -10 15 -22 l0 -23 9 23 c9 20 16 22 68 21 33 -1
64 1 71 5 7 5 10 28 8 63 -4 59 -19 79 -50 62z"/>
<path d="M270 3780 c-8 -5 -10 -10 -4 -10 7 0 14 -9 17 -20 6 -25 29 -27 25
-2 -2 13 5 18 30 20 17 2 32 7 32 13 0 12 -81 11 -100 -1z"/>
<path d="M3917 3773 c-14 -13 -6 -20 18 -15 14 2 25 8 25 13 0 10 -34 12 -43
2z"/>
<path d="M3890 3714 c0 -8 5 -12 10 -9 6 4 8 11 5 16 -9 14 -15 11 -15 -7z"/>
<path d="M4446 3722 c-3 -6 -1 -14 5 -17 15 -10 25 3 12 16 -7 7 -13 7 -17 1z"/>
<path d="M3917 3672 c-5 -7 -6 -21 -2 -31 3 -11 1 -22 -5 -26 -21 -13 -9 -25
23 -24 23 1 26 3 10 6 -26 5 -31 21 -7 19 9 0 19 5 21 12 3 6 -2 12 -10 12 -9
0 -17 10 -19 23 -2 15 -5 18 -11 9z"/>
<path d="M4404 3668 c-8 -12 -4 -15 29 -23 34 -9 35 6 2 22 -16 7 -27 8 -31 1z"/>
<path d="M4437 3623 c-4 -3 -7 -11 -7 -17 0 -6 5 -5 12 2 6 6 9 14 7 17 -3 3
-9 2 -12 -2z"/>
<path d="M3914 3554 c-2 -18 2 -24 15 -21 9 2 15 9 14 15 -2 7 2 12 7 12 6 0
10 5 10 10 0 6 -10 10 -22 10 -18 0 -23 -6 -24 -26z"/>
<path d="M3925 3500 c6 -9 2 -10 -16 -5 -21 7 -21 5 9 -23 37 -34 39 -46 15
-64 -10 -7 -18 -22 -18 -33 0 -13 -8 -21 -22 -23 -32 -5 -28 -14 12 -34 35
-17 60 -8 28 11 -17 9 -17 10 1 17 12 5 22 2 28 -9 5 -9 27 -20 49 -23 26 -4
36 -10 28 -15 -10 -6 -10 -11 -1 -22 10 -12 9 -16 -3 -21 -10 -3 -18 1 -23 14
-5 13 -11 17 -21 10 -12 -7 -12 -12 -3 -23 15 -18 6 -27 -31 -27 -25 0 -28 3
-24 21 4 15 1 19 -11 17 -11 -3 -16 -12 -15 -26 2 -16 -4 -25 -20 -31 -21 -8
-23 -16 -26 -90 l-2 -81 30 0 c20 0 31 6 34 18 4 15 5 15 6 0 1 -14 15 -17 86
-20 77 -3 85 -1 85 15 0 11 5 17 13 14 6 -2 11 -12 11 -21 -1 -9 3 -15 10 -13
12 4 13 83 1 158 -6 39 -10 46 -26 42 -13 -4 -19 0 -19 11 0 10 8 16 21 16 16
0 19 4 13 23 -3 12 -11 27 -16 34 -6 7 -5 19 3 31 17 28 6 52 -22 45 -16 -4
-20 -2 -17 8 3 8 13 14 23 14 10 0 20 6 23 13 3 9 -6 12 -30 9 -19 -2 -39 -6
-45 -10 -6 -4 -14 -3 -18 3 -3 5 -15 10 -25 10 -23 0 -60 29 -60 47 0 6 -5 15
-12 19 -7 5 -8 3 -3 -6z m74 -107 c-15 -18 -34 -1 -25 22 5 14 9 15 21 5 12
-10 13 -16 4 -27z m-39 -8 c0 -16 -6 -25 -15 -25 -28 0 -18 40 13 49 1 1 2
-10 2 -24z m51 -30 c0 -5 -9 -11 -21 -13 -20 -3 -27 8 -13 22 10 9 34 3 34 -9z
m62 -165 c-3 -11 -7 -20 -8 -20 -1 0 -5 9 -8 20 -3 12 0 20 8 20 8 0 11 -8 8
-20z m-162 -15 c-1 -15 -24 -12 -29 3 -3 9 2 13 12 10 10 -1 17 -7 17 -13z"/>
<path d="M10 3466 c-16 -31 -9 -188 9 -210 7 -9 9 -21 5 -28 -5 -7 -7 -20 -6
-30 2 -9 -2 -19 -8 -23 -13 -8 -13 -55 0 -55 6 0 13 7 16 15 4 8 12 15 20 15
17 0 19 61 2 78 -8 8 -6 16 11 29 25 20 27 40 11 102 -6 24 -9 50 -6 58 3 7 3
27 -1 43 -7 37 -34 40 -53 6z"/>
<path d="M4456 3325 c4 -8 8 -15 10 -15 2 0 4 7 4 15 0 8 -4 15 -10 15 -5 0
-7 -7 -4 -15z"/>
<path d="M5037 3313 c-3 -5 -2 -23 0 -40 7 -43 41 -48 39 -5 -2 41 -26 68 -39
45z"/>
<path d="M4896 3287 c3 -9 1 -24 -6 -32 -7 -9 -10 -18 -7 -22 4 -3 12 6 18 21
10 21 10 29 0 39 -10 9 -11 8 -5 -6z"/>
<path d="M5098 3253 c7 -3 16 -2 19 1 4 3 -2 6 -13 5 -11 0 -14 -3 -6 -6z"/>
<path d="M570 3240 c0 -5 5 -10 10 -10 6 0 10 5 10 10 0 6 -4 10 -10 10 -5 0
-10 -4 -10 -10z"/>
<path d="M598 3205 c-7 -36 7 -75 27 -75 8 0 20 -11 26 -24 9 -19 46 -46 64
-46 6 0 -7 74 -16 85 -11 15 6 39 21 30 8 -5 11 -3 8 6 -6 17 -57 31 -76 20
-11 -6 -21 -2 -32 12 -17 20 -17 20 -22 -8z"/>
<path d="M187 3183 c-5 -28 0 -136 8 -160 5 -16 81 -17 90 -3 5 8 11 8 19 1 9
-7 17 -4 29 9 21 25 21 34 1 65 -15 23 -15 25 1 25 20 0 65 -39 65 -57 0 -7
-10 -13 -22 -13 -21 0 -22 -1 -5 -17 17 -17 19 -17 33 2 9 13 12 29 8 45 -7
27 -7 27 2 81 4 24 2 39 -6 44 -20 12 -90 -30 -90 -54 0 -6 -4 -11 -10 -11 -5
0 -7 14 -3 33 5 26 3 30 -8 20 -18 -17 -44 -16 -59 2 -20 24 -47 18 -53 -12z
m83 -114 c0 -24 -23 -21 -28 4 -2 10 3 17 12 17 10 0 16 -9 16 -21z m37 -11
c-3 -8 -6 -5 -6 6 -1 11 2 17 5 13 3 -3 4 -12 1 -19z"/>
<path d="M760 3186 c0 -8 5 -18 10 -21 6 -3 10 3 10 14 0 12 -4 21 -10 21 -5
0 -10 -6 -10 -14z"/>
<path d="M5080 3144 c0 -8 -6 -17 -13 -20 -20 -7 -20 -54 1 -54 47 1 74 72 32
83 -13 3 -20 0 -20 -9z"/>
<path d="M47 3116 c-3 -8 1 -17 9 -20 8 -3 14 1 14 9 0 20 -17 28 -23 11z"/>
<path d="M740 3100 c0 -5 5 -10 11 -10 5 0 7 5 4 10 -3 6 -8 10 -11 10 -2 0
-4 -4 -4 -10z"/>
<path d="M560 3090 c0 -5 5 -10 11 -10 5 0 7 5 4 10 -3 6 -8 10 -11 10 -2 0
-4 -4 -4 -10z"/>
<path d="M555 3040 c-3 -5 -1 -10 4 -10 6 0 11 5 11 10 0 6 -2 10 -4 10 -3 0
-8 -4 -11 -10z"/>
<path d="M580 3040 c0 -5 5 -10 11 -10 5 0 7 5 4 10 -3 6 -8 10 -11 10 -2 0
-4 -4 -4 -10z"/>
<path d="M640 3041 c0 -12 1 -12 40 -16 29 -3 50 4 50 16 0 13 -34 11 -48 -3
-8 -8 -15 -8 -27 2 -10 8 -15 9 -15 1z"/>
<path d="M2 3028 c6 -18 28 -21 28 -4 0 9 -7 16 -16 16 -9 0 -14 -5 -12 -12z"/>
<path d="M4119 2976 c-2 -3 -61 -6 -131 -7 l-126 -3 4 -115 c2 -64 5 -151 5
-193 0 -62 3 -78 14 -78 20 0 19 -20 -2 -36 -17 -12 -16 -13 5 -14 14 0 22 -5
20 -12 -3 -7 -10 -13 -16 -13 -7 0 -12 -3 -12 -7 0 -5 0 -14 0 -22 0 -27 55
-29 99 -4 l41 23 38 -21 c20 -12 49 -24 65 -28 29 -7 31 -3 29 69 0 17 -2 126
-4 244 -3 195 -9 237 -29 217z m-192 -119 c-12 -27 -27 -36 -27 -17 0 11 32
51 37 46 1 -1 -3 -14 -10 -29z m170 -19 c-3 -8 -6 -5 -6 6 -1 11 2 17 5 13 3
-3 4 -12 1 -19z m-147 -138 c0 -5 -4 -10 -9 -10 -6 0 -13 5 -16 10 -3 6 1 10
9 10 9 0 16 -4 16 -10z m167 -26 c-3 -3 -12 -4 -19 -1 -8 3 -5 6 6 6 11 1 17
-2 13 -5z m8 -54 c3 -5 1 -10 -4 -10 -6 0 -11 5 -11 10 0 6 2 10 4 10 3 0 8
-4 11 -10z"/>
<path d="M4254 2970 c-5 -5 -6 -70 -1 -157 4 -81 7 -167 7 -190 0 -30 4 -43
14 -43 23 0 27 -50 5 -63 -26 -16 -24 -42 7 -62 20 -13 23 -19 13 -31 -6 -8
-18 -14 -26 -14 -21 0 -16 -167 5 -193 12 -13 13 -22 5 -40 l-11 -23 129 -1
c71 0 129 2 129 4 0 2 -5 13 -10 24 -8 14 -7 19 1 19 8 0 8 4 -1 15 -10 12
-10 18 1 31 11 13 10 17 -4 25 -21 12 -22 38 -2 45 22 9 18 41 -5 47 -20 5
-28 27 -10 27 6 0 10 10 10 22 0 12 -3 18 -7 15 -9 -9 -34 13 -27 24 3 5 14 9
25 9 20 0 26 15 9 25 -6 3 -7 17 -4 29 5 21 3 23 -20 19 -21 -4 -24 -2 -19 16
3 12 1 21 -6 21 -6 0 -11 5 -11 10 0 6 9 10 20 10 11 0 20 -4 20 -10 0 -5 5
-10 10 -10 13 0 12 170 -2 187 -5 7 -5 14 1 17 6 4 7 16 2 29 -8 22 -7 62 2
104 4 13 0 24 -9 27 -8 3 -14 12 -14 21 0 12 -16 15 -90 15 -73 0 -90 -3 -90
-15 0 -8 -4 -15 -10 -15 -5 0 -10 6 -10 14 0 19 -14 28 -26 16z m170 -59 c3
-5 -1 -11 -9 -15 -9 -3 -15 0 -15 9 0 16 16 20 24 6z m-114 -91 c0 -5 -2 -10
-4 -10 -3 0 -8 5 -11 10 -3 6 -1 10 4 10 6 0 11 -4 11 -10z m90 -40 c0 -5 -7
-10 -15 -10 -8 0 -15 5 -15 10 0 6 7 10 15 10 8 0 15 -4 15 -10z m50 -16 c0
-16 -16 -19 -25 -4 -8 13 4 32 16 25 5 -4 9 -13 9 -21z m-130 -58 c0 -3 -4 -8
-10 -11 -5 -3 -10 -1 -10 4 0 6 5 11 10 11 6 0 10 -2 10 -4z m95 -66 c3 -5 -3
-10 -15 -10 -12 0 -18 5 -15 10 3 6 10 10 15 10 5 0 12 -4 15 -10z m-5 -50
c12 -8 9 -10 -12 -10 -16 0 -28 5 -28 10 0 13 20 13 40 0z m-70 -30 c0 -5 -4
-10 -10 -10 -5 0 -10 5 -10 10 0 6 5 10 10 10 6 0 10 -4 10 -10z m60 -15 c0
-8 -7 -15 -15 -15 -26 0 -18 20 13 29 1 1 2 -6 2 -14z m-55 -25 c3 -5 1 -10
-4 -10 -6 0 -11 5 -11 10 0 6 2 10 4 10 3 0 8 -4 11 -10z m90 -10 c-3 -5 -10
-10 -16 -10 -5 0 -9 5 -9 10 0 6 7 10 16 10 8 0 12 -4 9 -10z m20 -100 c3 -5
1 -10 -4 -10 -6 0 -11 5 -11 10 0 6 2 10 4 10 3 0 8 -4 11 -10z m-135 -60 c0
-5 -4 -10 -10 -10 -5 0 -10 5 -10 10 0 6 5 10 10 10 6 0 10 -4 10 -10z m90
-10 c0 -5 -2 -10 -4 -10 -3 0 -8 5 -11 10 -3 6 -1 10 4 10 6 0 11 -4 11 -10z
m71 -53 c-1 -12 -15 -9 -19 4 -3 6 1 10 8 8 6 -3 11 -8 11 -12z m-91 -6 c0 -6
-4 -13 -10 -16 -5 -3 -10 1 -10 9 0 9 5 16 10 16 6 0 10 -4 10 -9z m35 -31 c3
-5 -1 -10 -9 -10 -9 0 -16 5 -16 10 0 6 4 10 9 10 6 0 13 -4 16 -10z"/>
<path d="M5070 2961 c0 -6 5 -13 10 -16 6 -3 10 1 10 9 0 9 -4 16 -10 16 -5 0
-10 -4 -10 -9z"/>
<path d="M4850 2950 c19 -13 30 -13 30 0 0 6 -10 10 -22 10 -19 0 -20 -2 -8
-10z"/>
<path d="M4890 2950 c0 -5 5 -10 10 -10 6 0 10 5 10 10 0 6 -4 10 -10 10 -5 0
-10 -4 -10 -10z"/>
<path d="M55 2930 c-3 -5 -1 -10 4 -10 6 0 11 5 11 10 0 6 -2 10 -4 10 -3 0
-8 -4 -11 -10z"/>
<path d="M194 2926 c-3 -8 -4 -23 -2 -33 5 -25 59 -20 77 7 7 11 21 20 30 21
32 1 -23 18 -62 18 -24 1 -40 -4 -43 -13z"/>
<path d="M2 2895 c3 -43 15 -52 43 -31 20 15 18 19 -28 55 -17 14 -18 12 -15
-24z"/>
<path d="M980 2850 c0 -5 5 -10 10 -10 6 0 10 5 10 10 0 6 -4 10 -10 10 -5 0
-10 -4 -10 -10z"/>
<path d="M4876 2834 c-9 -23 8 -38 23 -21 9 11 8 17 -3 26 -11 9 -15 8 -20 -5z"/>
<path d="M4712 2800 c7 -11 17 -20 22 -20 5 0 1 9 -9 20 -10 11 -20 20 -22 20
-2 0 2 -9 9 -20z"/>
<path d="M4811 2803 c11 -13 11 -17 2 -20 -31 -11 -8 -20 50 -20 34 1 52 2 40
5 -13 2 -23 8 -23 13 0 5 -9 9 -20 9 -11 0 -23 7 -26 15 -4 8 -13 15 -21 15
-13 0 -13 -2 -2 -17z"/>
<path d="M4725 2760 c-3 -5 -1 -10 4 -10 6 0 11 5 11 10 0 6 -2 10 -4 10 -3 0
-8 -4 -11 -10z"/>
<path d="M4790 2735 c0 -3 11 -16 25 -29 16 -15 23 -30 19 -40 -9 -23 -24 -20
-24 5 0 11 -4 17 -10 14 -9 -6 -7 -91 3 -102 3 -3 3 -12 0 -20 -4 -9 2 -16 15
-20 20 -5 20 -5 1 -39 -12 -21 -17 -44 -13 -58 6 -27 -6 -39 -30 -30 -17 7
-22 34 -6 34 6 0 10 14 10 30 0 17 -4 30 -10 30 -5 0 -10 -4 -10 -10 0 -5 -8
-10 -17 -10 -15 0 -16 -2 -3 -10 13 -8 13 -12 -3 -27 -17 -17 -19 -17 -37 7
-10 13 -16 28 -14 32 3 4 -3 8 -12 8 -14 0 -15 -3 -6 -12 7 -7 12 -20 12 -30
0 -10 6 -18 14 -18 7 0 16 -8 18 -18 4 -13 -1 -18 -15 -19 -11 -1 -24 -6 -29
-11 -10 -10 0 -42 13 -42 5 0 9 -8 9 -19 0 -11 9 -21 22 -24 12 -4 20 -9 16
-12 -3 -3 -17 -1 -32 4 l-26 11 0 -55 c0 -45 3 -53 15 -49 9 4 25 -4 40 -20
27 -30 47 -26 44 7 0 12 -1 29 0 37 1 13 3 13 10 1 5 -8 7 -20 4 -28 -9 -23
29 -42 83 -43 46 0 53 3 57 23 8 29 5 42 -9 39 -20 -4 -26 29 -7 34 15 4 18
17 17 86 0 74 -2 82 -22 91 -23 10 -32 57 -11 57 7 0 9 10 7 25 -4 17 -1 25 8
25 8 0 14 11 14 25 0 18 -5 25 -20 25 -11 0 -20 5 -21 10 -4 35 -2 57 5 68 10
16 -46 72 -73 72 -12 0 -21 -2 -21 -5z m98 -317 c-6 -18 -28 -21 -28 -4 0 9 7
16 16 16 9 0 14 -5 12 -12z m-128 -78 c0 -37 -26 -41 -32 -5 -6 27 -1 35 19
35 8 0 13 -12 13 -30z m77 -16 c7 -18 -17 -38 -31 -24 -11 11 -1 40 14 40 6 0
13 -7 17 -16z m-52 -54 c3 -6 -1 -13 -10 -16 -19 -8 -30 0 -20 15 8 14 22 14
30 1z m-85 -20 c0 -5 -4 -10 -10 -10 -5 0 -10 5 -10 10 0 6 5 10 10 10 6 0 10
-4 10 -10z m142 -72 c-11 -11 -32 -3 -32 12 0 4 9 6 21 3 13 -4 17 -9 11 -15z"/>
<path d="M4880 2720 c0 -5 4 -10 9 -10 6 0 13 5 16 10 3 6 -1 10 -9 10 -9 0
-16 -4 -16 -10z"/>
<path d="M5063 2704 c-5 -13 1 -166 9 -234 2 -14 9 -29 16 -33 17 -11 15 -27
-3 -27 -10 0 -16 -11 -16 -30 -1 -16 -2 -36 -3 -42 -1 -7 6 -13 14 -13 8 0 15
-7 15 -15 0 -8 -5 -14 -11 -13 -18 3 -24 -36 -8 -51 17 -18 18 -36 2 -36 -6 0
-9 -2 -7 -5 3 -2 15 -2 27 2 21 5 22 10 22 124 0 99 -3 119 -15 119 -8 0 -15
7 -15 16 0 10 6 14 15 10 8 -3 15 -1 15 4 0 6 -7 10 -15 10 -8 0 -15 5 -15 10
0 6 7 10 15 10 12 0 15 15 15 75 0 62 -2 73 -15 69 -8 -4 -15 -1 -15 5 0 6 7
11 15 11 24 0 17 24 -11 37 -20 10 -26 9 -31 -3z"/>
<path d="M200 2659 c0 -16 4 -28 9 -25 8 5 3 56 -5 56 -2 0 -4 -14 -4 -31z"/>
<path d="M4746 2675 c4 -8 10 -15 15 -15 4 0 6 7 3 15 -4 8 -10 15 -15 15 -4
0 -6 -7 -3 -15z"/>
<path d="M4898 2643 c7 -3 16 -2 19 1 4 3 -2 6 -13 5 -11 0 -14 -3 -6 -6z"/>
<path d="M200 2549 c0 -74 17 -70 21 5 2 32 -1 51 -9 54 -9 3 -12 -14 -12 -59z"/>
<path d="M4660 2600 c0 -5 5 -10 10 -10 6 0 10 5 10 10 0 6 -4 10 -10 10 -5 0
-10 -4 -10 -10z"/>
<path d="M10 2540 c0 -5 5 -10 10 -10 6 0 10 5 10 10 0 6 -4 10 -10 10 -5 0
-10 -4 -10 -10z"/>
<path d="M4706 2541 c-4 -7 -5 -15 -2 -18 9 -9 19 4 14 18 -4 11 -6 11 -12 0z"/>
<path d="M1126 2512 c-3 -5 -8 -32 -12 -60 -3 -29 -10 -52 -15 -52 -5 0 -9
-17 -9 -39 0 -21 -7 -58 -15 -81 -19 -55 -4 -118 20 -80 3 6 15 10 26 10 11 0
19 7 19 16 0 9 -5 12 -12 8 -6 -4 -4 3 5 17 21 29 21 39 2 39 -9 0 -15 9 -15
25 0 16 6 25 15 25 13 0 14 8 8 48 -9 60 -9 92 1 115 8 17 -8 25 -18 9z m4
-148 c0 -8 -4 -12 -10 -9 -5 3 -10 10 -10 16 0 5 5 9 10 9 6 0 10 -7 10 -16z
m-30 -135 c0 -11 -4 -17 -10 -14 -5 3 -10 13 -10 21 0 8 5 14 10 14 6 0 10 -9
10 -21z"/>
<path d="M0 2474 c0 -14 4 -23 10 -19 13 8 13 45 0 45 -5 0 -10 -12 -10 -26z"/>
<path d="M3751 2484 c0 -11 3 -14 6 -6 3 7 2 16 -1 19 -3 4 -6 -2 -5 -13z"/>
<path d="M258 2483 c7 -3 16 -2 19 1 4 3 -2 6 -13 5 -11 0 -14 -3 -6 -6z"/>
<path d="M4900 2475 c-12 -14 -12 -18 1 -25 10 -7 15 -5 17 5 6 28 -3 38 -18
20z"/>
<path d="M197 2367 c-3 -62 -2 -134 1 -162 l7 -50 93 -3 c59 -2 92 1 92 8 0 5
6 10 14 10 18 0 25 22 28 80 1 26 -3 45 -10 48 -17 5 -15 32 3 38 45 18 -15
70 -67 60 -44 -8 -94 7 -90 26 2 16 -22 41 -49 51 -14 5 -17 -10 -22 -106z
m43 52 c0 -5 -7 -9 -15 -9 -8 0 -15 7 -15 15 0 9 6 12 15 9 8 -4 15 -10 15
-15z m164 -47 c3 -5 -4 -16 -16 -26 -14 -13 -23 -15 -31 -7 -8 8 -6 11 6 11 9
0 17 7 17 15 0 16 15 20 24 7z"/>
<path d="M40 2444 c0 -8 5 -12 10 -9 6 4 8 11 5 16 -9 14 -15 11 -15 -7z"/>
<path d="M406 2425 c4 -8 8 -15 10 -15 2 0 4 7 4 15 0 8 -4 15 -10 15 -5 0 -7
-7 -4 -15z"/>
<path d="M975 2420 c3 -5 10 -10 16 -10 5 0 9 5 9 10 0 6 -7 10 -16 10 -8 0
-12 -4 -9 -10z"/>
<path d="M3983 2417 c-16 -5 -46 -9 -67 -10 -42 -2 -57 -26 -32 -50 11 -10 11
-14 0 -22 -11 -8 -12 -30 -7 -97 l6 -88 68 0 c44 0 69 4 73 13 5 10 7 10 12 0
4 -8 27 -13 64 -13 l58 0 -2 137 -1 137 -72 1 c-40 0 -85 -4 -100 -8z m-23
-87 c0 -5 -2 -10 -4 -10 -3 0 -8 5 -11 10 -3 6 -1 10 4 10 6 0 11 -4 11 -10z"/>
<path d="M570 2350 c-11 -7 -15 -31 -16 -100 l-1 -90 93 0 c56 0 95 4 100 11
3 6 15 9 25 6 16 -4 19 0 19 28 0 32 -1 33 -45 37 -44 3 -45 3 -23 -14 23 -17
23 -17 3 -32 -24 -18 -45 -20 -45 -5 0 8 -4 8 -12 2 -11 -8 -51 -10 -79 -4 -4
0 -6 22 -5 47 2 32 8 49 20 56 14 8 19 5 23 -12 3 -11 11 -19 17 -17 6 3 19
-2 29 -11 16 -14 16 -13 6 17 -13 38 1 65 23 43 9 -9 9 -15 0 -24 -16 -16 -15
-28 3 -28 8 0 15 7 15 15 0 8 7 15 15 15 9 0 15 -9 15 -21 0 -14 5 -19 18 -17
25 5 29 98 4 98 -9 0 -24 -5 -32 -10 -10 -6 -22 -4 -38 6 -17 11 -27 12 -42 4
-14 -7 -26 -8 -39 0 -24 12 -32 12 -51 0z"/>
<path d="M0 2330 c0 -15 7 -20 25 -20 27 0 32 9 13 28 -18 18 -38 14 -38 -8z"/>
<path d="M973 2313 c-10 -27 -10 -27 -17 -5 -9 26 -26 29 -26 4 0 -11 12 -22
31 -29 26 -10 30 -15 21 -26 -7 -8 -9 -16 -6 -20 10 -9 34 4 34 19 0 8 4 14
10 14 5 0 9 15 7 33 -3 44 -41 51 -54 10z"/>
<path d="M620 2223 c0 -13 5 -23 10 -23 13 0 13 11 0 30 -8 12 -10 11 -10 -7z"/>
<path d="M926 2204 c-9 -22 -8 -24 9 -18 8 4 15 12 15 20 0 19 -16 18 -24 -2z"/>
<path d="M975 2210 c-7 -12 2 -30 16 -30 12 0 12 27 0 35 -5 3 -12 1 -16 -5z"/>
<path d="M0 2187 c0 -8 11 -19 25 -25 20 -9 25 -9 25 3 0 8 -9 19 -19 25 -26
13 -31 13 -31 -3z"/>
<path d="M5080 2174 c0 -8 9 -14 20 -14 11 0 20 4 20 9 0 5 -9 11 -20 14 -13
3 -20 0 -20 -9z"/>
<path d="M460 1975 c-14 -8 -46 -14 -72 -15 -41 0 -48 -3 -48 -19 0 -27 -16
-35 -80 -41 -39 -4 -54 -9 -52 -19 4 -20 -16 -39 -56 -52 -20 -7 -48 -20 -61
-30 -12 -10 -38 -21 -57 -25 l-34 -6 0 -239 0 -239 40 25 c22 14 46 25 53 25
20 0 50 37 42 50 -5 8 0 10 12 8 10 -1 33 8 51 20 17 13 36 21 40 18 5 -3 15
6 22 19 7 13 16 22 20 20 4 -3 13 2 20 10 7 8 20 15 30 15 10 0 23 7 30 15 19
23 128 95 144 95 8 0 16 -7 20 -15 3 -8 11 -15 17 -15 7 0 2 12 -12 26 -24 25
-24 26 -4 40 22 17 56 15 62 -3 2 -6 -4 -13 -14 -16 -10 -3 29 -5 88 -6 68 -1
109 3 117 11 8 8 15 8 26 -1 13 -11 19 -7 36 21 19 32 27 87 13 89 -5 1 -80 2
-167 3 l-159 2 -4 60 c-2 32 -6 70 -9 84 -4 14 -6 42 -5 63 3 41 -8 46 -49 22z
m-60 -115 c0 -5 -7 -10 -15 -10 -8 0 -15 5 -15 10 0 6 7 10 15 10 8 0 15 -4
15 -10z m60 -55 c0 -8 -4 -15 -9 -15 -5 0 -11 7 -15 15 -3 9 0 15 9 15 8 0 15
-7 15 -15z m30 -15 c0 -5 -4 -10 -10 -10 -5 0 -10 5 -10 10 0 6 5 10 10 10 6
0 10 -4 10 -10z m-350 -20 c0 -5 -7 -7 -15 -4 -8 4 -15 8 -15 10 0 2 7 4 15 4
8 0 15 -4 15 -10z m335 -10 c3 -5 -1 -10 -9 -10 -9 0 -16 5 -16 10 0 6 4 10 9
10 6 0 13 -4 16 -10z m-15 -35 c10 -12 10 -15 -4 -15 -9 0 -16 7 -16 15 0 8 2
15 4 15 2 0 9 -7 16 -15z m-392 -33 c2 -7 -6 -12 -17 -12 -21 0 -27 11 -14 24
9 9 26 2 31 -12z m132 8 c0 -5 -7 -10 -15 -10 -8 0 -15 5 -15 10 0 6 7 10 15
10 8 0 15 -4 15 -10z m370 -10 c0 -5 -7 -10 -16 -10 -8 0 -12 5 -9 10 3 6 10
10 16 10 5 0 9 -4 9 -10z m131 -43 c-13 -13 -26 -3 -16 12 3 6 11 8 17 5 6 -4
6 -10 -1 -17z m-621 -38 c0 -5 -7 -9 -15 -9 -15 0 -20 12 -9 23 8 8 24 -1 24
-14z m35 -19 c3 -5 1 -10 -4 -10 -6 0 -11 5 -11 10 0 6 2 10 4 10 3 0 8 -4 11
-10z m20 -100 c3 -5 -1 -10 -9 -10 -9 0 -16 5 -16 10 0 6 4 10 9 10 6 0 13 -4
16 -10z"/>
<path d="M4314 1700 c2 -16 -1 -30 -5 -30 -5 0 -9 -7 -9 -16 0 -11 -6 -15 -20
-11 -13 3 -20 0 -20 -9 0 -8 -9 -14 -20 -14 -14 0 -18 5 -13 18 5 14 3 15 -8
5 -21 -21 -47 -15 -61 14 -17 34 -35 40 -43 12 -6 -18 -12 -20 -46 -15 -27 4
-39 3 -39 -6 0 -6 -7 -3 -15 8 -8 10 -15 14 -15 8 0 -7 -16 -12 -36 -12 -41 0
-55 -9 -28 -18 10 -4 27 -14 37 -23 23 -20 291 -29 313 -10 10 8 14 8 14 0 0
-19 57 -13 65 7 6 16 7 16 19 0 11 -15 35 -18 159 -20 91 -2 149 1 151 7 3 6
9 3 15 -5 9 -13 11 -12 11 5 0 16 2 17 9 6 11 -16 51 -23 51 -8 0 5 7 4 15 -3
12 -10 15 -10 15 4 0 18 16 22 22 6 4 -13 244 -17 271 -5 12 5 17 19 17 48 0
32 -3 38 -12 29 -7 -7 -21 -12 -33 -12 -11 0 -28 -9 -38 -20 -15 -18 -47 -18
-47 -1 0 4 -10 7 -22 7 -13 -1 -22 4 -20 12 2 14 -34 16 -43 2 -10 -16 -52
-12 -90 10 l-35 20 0 -25 c0 -18 -4 -23 -15 -19 -17 7 -21 34 -5 34 6 0 10 4
10 10 0 14 -63 -1 -80 -20 -8 -9 -24 -14 -34 -12 -15 3 -16 6 -5 14 11 7 9 8
-6 6 -11 -2 -21 -10 -21 -18 -1 -8 -2 -21 -3 -27 -1 -18 -31 -16 -31 2 0 8 5
15 10 15 6 0 10 6 10 13 0 21 -39 13 -55 -11 -14 -19 -18 -20 -49 -7 -18 8
-37 11 -40 7 -4 -3 -4 2 0 12 6 15 3 17 -14 12 -12 -4 -31 -2 -43 4 -17 9 -23
9 -29 0 -10 -16 -29 -4 -40 26 -13 34 -30 30 -26 -6z m356 -85 c0 -8 -4 -15
-10 -15 -5 0 -10 7 -10 15 0 8 5 15 10 15 6 0 10 -7 10 -15z"/>
<path d="M4917 1700 c3 -11 9 -20 14 -20 5 0 9 9 9 20 0 11 -6 20 -14 20 -9 0
-12 -7 -9 -20z"/>
<path d="M5050 1700 c0 -11 7 -20 15 -20 8 0 15 9 15 20 0 11 -7 20 -15 20 -8
0 -15 -9 -15 -20z"/>
<path d="M4528 1673 c7 -3 16 -2 19 1 4 3 -2 6 -13 5 -11 0 -14 -3 -6 -6z"/>
<path d="M1084 1579 c-3 -6 -1 -16 5 -22 8 -8 11 -5 11 11 0 24 -5 28 -16 11z"/>
<path d="M520 1531 c0 -6 5 -13 10 -16 6 -3 10 1 10 9 0 9 -4 16 -10 16 -5 0
-10 -4 -10 -9z"/>
<path d="M4110 1526 c0 -7 55 -36 70 -36 20 0 10 18 -14 24 -13 3 -31 9 -40
12 -9 3 -16 4 -16 0z"/>
<path d="M4222 1428 c3 -7 17 -15 33 -16 25 -3 27 -2 16 12 -16 19 -55 22 -49
4z"/>
<path d="M1080 1408 c0 -7 5 -20 10 -28 8 -12 10 -9 10 13 0 15 -4 27 -10 27
-5 0 -10 -6 -10 -12z"/>
<path d="M1122 1400 c0 -14 2 -19 5 -12 2 6 2 18 0 25 -3 6 -5 1 -5 -13z"/>
<path d="M4036 1413 c-11 -11 -6 -23 9 -23 8 0 15 4 15 9 0 13 -16 22 -24 14z"/>
<path d="M4325 1380 c3 -5 15 -10 25 -10 10 0 22 5 25 10 4 6 -7 10 -25 10
-18 0 -29 -4 -25 -10z"/>
<path d="M5080 1373 c0 -8 -13 -11 -35 -9 -19 1 -35 0 -35 -3 0 -8 53 -31 84
-37 22 -4 26 -1 26 21 0 17 -4 24 -11 19 -6 -3 -15 0 -20 7 -6 10 -9 10 -9 2z"/>
<path d="M4981 1344 c0 -11 3 -14 6 -6 3 7 2 16 -1 19 -3 4 -6 -2 -5 -13z"/>
<path d="M4348 1283 c6 -2 18 -2 25 0 6 3 1 5 -13 5 -14 0 -19 -2 -12 -5z"/>
<path d="M4460 1270 c0 -5 5 -10 11 -10 5 0 7 5 4 10 -3 6 -8 10 -11 10 -2 0
-4 -4 -4 -10z"/>
<path d="M157 1263 c-15 -14 -5 -23 25 -23 30 0 31 1 12 15 -22 16 -28 18 -37
8z"/>
<path d="M4530 1044 l0 -45 52 3 c52 3 52 3 56 39 3 35 3 35 -31 31 -19 -2
-38 1 -41 7 -4 6 -14 11 -22 11 -10 0 -14 -13 -14 -46z"/>
<path d="M430 901 c0 -5 9 -12 19 -16 24 -7 73 4 65 16 -7 12 -84 12 -84 0z"/>
</g>
</svg>
